<?xml version="1.0" encoding="utf-8"?>
<!-- Generator: Adobe Illustrator 27.0.0, SVG Export Plug-In . SVG Version: 6.00 Build 0)  -->
<svg version="1.1" id="Layer_1" xmlns="http://www.w3.org/2000/svg" xmlns:xlink="http://www.w3.org/1999/xlink" x="0px" y="0px"
	 viewBox="0 0 25 25" style="enable-background:new 0 0 25 25;" xml:space="preserve">
<style type="text/css">
	.st0{fill:#010101;}
</style>
<g>
	<path class="st0" d="M0,23.86C0,24.49,0.51,25,1.14,25s1.14-0.51,1.14-1.14c0-4.01,2.31-7.56,5.91-9.24
		c1.25,0.81,2.73,1.28,4.32,1.28c1.6,0,3.09-0.48,4.33-1.29c1.07,0.51,2.07,1.19,2.9,2.02c1.93,1.93,3,4.5,3,7.23
		c0,0.63,0.51,1.14,1.14,1.14S25,24.49,25,23.86c0-3.34-1.3-6.48-3.66-8.84c-0.79-0.79-1.71-1.47-2.69-2.03
		c1.13-1.37,1.81-3.13,1.81-5.04C20.45,3.57,16.88,0,12.5,0C8.11,0,4.54,3.57,4.54,7.95c0,1.91,0.68,3.66,1.8,5.03
		C2.45,15.18,0,19.29,0,23.86z M12.5,2.27c3.13,0,5.68,2.55,5.68,5.68s-2.55,5.68-5.68,5.68s-5.68-2.55-5.68-5.68
		S9.37,2.27,12.5,2.27z"/>
</g>
</svg>
