<?xml version="1.0" encoding="utf-8"?>
<!-- Generator: Adobe Illustrator 27.0.0, SVG Export Plug-In . SVG Version: 6.00 Build 0)  -->
<svg version="1.1" id="Layer_1" xmlns="http://www.w3.org/2000/svg" xmlns:xlink="http://www.w3.org/1999/xlink" x="0px" y="0px"
	 viewBox="0 0 2000 2000" enable-background="new 0 0 2000 2000" xml:space="preserve">
<g>
	<path id="XMLID_00000087394594680068672430000003770249683959586194_" d="M672.6,784.8c32.9,37.7,49.3,87.2,48.2,137
		c-1.2,50-19.5,99.2-51.2,137.9c-31.1,38-74.4,65.1-121.6,78.1c-50.6,13.9-105.3,11.9-154.8-5.5c-46.8-16.5-87-47-118-85.5
		c-31.7-39.4-52.9-86.8-61.9-136.5c-9.5-52.2-5.7-106.7,11.3-157c16.1-47.6,43.9-90.3,80-125.2c36.2-35.1,79.9-62.4,126.7-81.1
		c49.2-19.6,102.1-29.6,155-28.5c52.9,1,105.3,13.1,153.5,34.8c46.3,20.9,88.5,50.4,124.6,86c36.3,35.7,66.3,77.5,89.7,122.7
		c24.2,46.8,41.3,97.2,50.9,149c9.9,53.2,11.8,108,4.6,161.6c-7,52.7-23.6,103-47.1,150.5c-23.1,46.5-52.3,89.9-86.8,128.7
		c-34.5,38.9-74,73.1-117,102.3c-43.5,29.6-90.6,54-139.5,73.3c-49.8,19.6-101.6,34-154.3,43.4c-25.9,4.6-52,8-78.1,10.2
		c60.3,7.6,121.6,5.9,181.5-4.3c58.5-10,115.6-27.9,169.4-53c52.7-24.5,102.2-55.8,146.8-93.1c44.3-37.1,83.2-80.1,116-127.6
		c32.9-47.7,59.6-99.8,77.7-154.9c2.2-6.9,4.4-13.8,6.3-20.7c12.6,42,31.7,81.9,55.2,118.9c23.2,36.5,50.7,70.2,81.6,100.5
		c18.2,17.7,37.5,34.3,57.9,49.4c-21.1-28.1-40.2-57.7-57.2-88.4c-17.1-30.9-32-62.9-44.1-96.1c-12.2-33.3-21.7-67.8-27.3-102.9
		c-5.8-36.6-6.6-73.3-3-110.2c3.5-36.8,8.6-73.4,15.7-109.7c3.5-17.9,6.2-36,10.9-53.6c2-7.2,4.1-14.6,7.4-21.3
		c3-6.2,7.2-12.7,13.6-15.7c7.2-3.4,16.4-3.4,24.2-3.4c9.1,0,18.1,0.9,27.1,1.9c9,1,18.1,2.1,27.1,2.5c9.3,0.5,18.6,0.3,27.8,0.2
		c36.5-0.2,73.3-1.4,109.3-7.3c33.5-5.5,66-17,95.4-34c27.7-16,52.7-36.9,73.2-61.5c5.5-6.6,10.6-13.4,15.4-20.5
		c-43.6,23.8-89.8,43.3-137.9,56.3c-49.2,13.2-101.3,19.9-151.8,11c-26.5-4.6-52.2-13.8-75.2-27.8c25.7-39.2,57.5-74.3,93.2-104.6
		c36.1-30.6,76.4-56.4,119.6-75.8c44.8-20.1,92.8-32.6,141.9-35.8c51-3.4,102.6,2.3,152,15.4c46.2,12.3,90.8,31.1,131,57.2
		c5.3,3.4,10.5,6.9,15.5,10.6c-16.8-26.4-38.8-49.2-63.4-68.3c-25.9-20.1-54.8-36.2-84.9-49c-31.5-13.5-64.4-23.4-98-30.2
		c-34.4-7-69.7-10.8-104.8-10c-34.8,0.8-69.1,6.4-102.5,16.2c-32.2,9.4-63.4,22.5-93,38.4c-29,15.6-56.6,34-82,55.1
		c-25.3,21-48.3,44.6-68.9,70.1c-20.9,25.9-39.4,53.7-55.5,82.8c-16.5,29.8-30.5,60.9-42.3,92.9c-2.9,8-5.7,16-8.4,24
		c-12.3-40.9-29.2-80.4-50-117.8c-20.4-36.7-44.7-71.3-72.5-102.8c-27.1-30.8-57.7-58.8-91.2-82.6c-33.8-24-70.7-43.8-109.7-58
		c-40.7-14.8-83.5-23.7-126.6-27.4c-44.7-3.8-89.9-1.8-134.1,5.8c-42.2,7.3-83.6,19.7-122.6,37.3c-37.2,16.9-72.1,38.7-103.5,64.9
		c-31,25.9-58.4,56-81.2,89.4c-23.3,34.2-41.5,71.7-53.7,111.3c-12.9,41.8-18.8,85.8-17.2,129.6c1.6,43.1,10.5,85.9,26.1,126.1
		c14.8,38,35.7,73.6,61.5,105.1c25.2,30.8,55.2,57.8,89,78.9c34.7,21.6,73.6,36.8,114.1,43c42.7,6.5,87,3.2,128.8-7.5
		c38.8-9.9,76.1-27.1,107.9-51.6c30.1-23.2,55.1-53,72.7-86.6c19.2-36.6,29.9-77.9,29-119.3c-0.9-40.2-13-80-35.2-113.5
		C700.3,812.5,687.2,797.8,672.6,784.8C683.9,797.8,687.3,797.8,672.6,784.8C689.7,804.4,672.6,784.8,672.6,784.8z"/>
</g>
</svg>
